#!OML:ASF F:\VICON\USERDATA\INSTALL\rory3\rory3.ASF
:FULLY-SPECIFIED
:DEGREES
20
root 0.5044278607383572 18.721653269017335 -13.506905477130166 3.067689445398309 0.5097595374329751 -1.096525992551642
lfemur -18.687069922320575 -0.6228399606638144 -24.229368288831857
ltibia 36.90772775965877
lfoot 1.356434520784566 -7.473301765772986
ltoes -3.539850518985059
rfemur -16.90164914871567 -1.0152464746758054 26.737815528501265
rtibia 116.78421113518945
rfoot 21.55241578357711 -8.194359703398966
rtoes 6.812813870184264
lowerback 15.086407813649263 1.516002459721741 0.5602689895842333
upperback -1.2383904066247198 2.341637131005881 0.5301192395341527
thorax -9.968703146464101 1.0721832441824664 0.08927996036960373
lowerneck -22.02514057014194 -3.8379558678091525 -1.7352889958583582
upperneck 13.800210051478048 -4.830813955962184 1.8373662959559542
head 7.817487572560751 -2.336337752335506 0.2661114816364116
lclavicle -1.7288340553923125e-15 1.7836277220852514e-15
lhumerus -62.47095938714349 -7.877009369634605 94.85402955867463
lradius 101.14392727684574
lwrist 31.423495833269847
lhand -25.02980608824281 -1.9012473310113285
lfingers 7.12502
lthumb 1.4827299631521198 28.088133048479644
rclavicle -1.7288340553923125e-15 1.7836277220852514e-15
rhumerus -54.04642374385339 6.051907576524675 -96.0470900721169
rradius 105.78430570698062
rwrist -7.966730938111725
rhand -16.10476363291109 38.51722656873773
rfingers 7.12502
rthumb 10.099070328380973 8.79169395671968
21
root 0.3924905711429013 18.35185231428429 -2.4773517695534046 1.9779378031340396 0.055325728114368866 -0.2799971747065175
lfemur -12.185591296002865 -1.070122719712022 -25.961597367825004
ltibia 45.273016025477546
lfoot -7.705847237101882 -6.27646442399599
ltoes -6.60527697654909
rfemur -27.934626150025363 -3.013850984604496 26.006013947566192
rtibia 107.51428694656585
rfoot 14.655339060136058 -5.5446686097285225
rtoes 10.870110085025265
lowerback 16.12169863047149 1.2368604009573412 -0.3108544342331363
upperback -1.0598885679208323 1.8116728435781047 0.19892394522668466
thorax -10.041200198532135 0.8674932178929348 0.8411313041990239
lowerneck -20.267995060591172 -2.9728491976763074 -1.6761309998649603
upperneck 14.519509281442735 -3.8309115733261563 1.9435833625781218
head 7.875959098669322 -1.7770336244887672 0.3884455365772077
lclavicle -1.2826926061639259e-15 2.107161369946263e-15
lhumerus -58.61120552976522 -11.204745730491576 95.92116609263121
lradius 103.97376526868467
lwrist 32.39461881451757
lhand -24.023790678725494 2.0411361931586973
lfingers 7.12502
lthumb 2.4544127060143 32.00862003643698
rclavicle -1.2826926061639259e-15 2.107161369946263e-15
rhumerus -49.53399524523245 7.045760793497346 -95.76300572235318
rradius 107.19292436277418
rwrist -8.996579953928558
rhand -15.14324979467429 39.559136962107345
rfingers 7.12502
rthumb 11.026609233528985 9.702562480933734
22
root 0.3292030832208731 18.213062211057302 -1.5538725814049652 1.8882225653265556 0.6866723536608306 0.09083787900706719
lfemur -9.65666834846761 -0.805561771418829 -27.133828749432656
ltibia 45.99323256514221
lfoot -12.054280547668032 -5.020437884873874
ltoes -5.080011818065012
rfemur -35.50305924386329 -4.232649889452846 25.62459872415273
rtibia 101.75932686805334
rfoot 8.66394113719447 -6.787810085532948
rtoes 4.238970962488068
lowerback 16.70931978052832 0.8103380634581732 -1.0927772751315057
upperback -0.6655727780358774 1.0872188047057947 0.30745942528390446
thorax -10.052452041189346 0.5728904913320065 1.4899720239481296
lowerneck -20.17282458556069 -2.921742600758703 -1.925597387335201
upperneck 14.483302921733696 -3.6850439475264496 2.087306745103771
head 7.854265337491125 -1.7230095863908161 0.47945339903385475
lclavicle -1.6679641654188974e-15 1.82773509825444e-15
lhumerus -53.13029149753252 -14.16175270912304 96.89873284276891
lradius 106.74517610556046
lwrist 32.84712517325018
lhand -24.22198470618934 2.6246716930488247
lfingers 7.12502
lthumb 2.2629940996432363 32.5901902431956
rclavicle -1.6679641654188974e-15 1.82773509825444e-15
rhumerus -50.77417190588028 7.35705728575392 -96.29356246751779
rradius 107.74086978611165
rwrist -9.220347026748914
rhand -15.297281233948636 39.58002328570396
rfingers 7.12502
rthumb 10.877899850845097 9.861227387054429
23
root 0.27216077214018264 18.056569959138393 -0.5600672302875065 2.415691581349215 1.502349699567712 0.4829508108470395
lfemur -4.937757297467176 -0.6944749667203198 -28.369191165611223
ltibia 42.94597134778907
lfoot -15.671247427596334 -4.460303261585263
ltoes -4.1635701882835665
rfemur -42.30033446521534 -4.415054503228001 24.740495385014743
rtibia 89.3611910374717
rfoot 5.71762933140738 -9.73842115297823
rtoes -0.2922041242355884
lowerback 16.81733261966488 0.3268000434032017 -1.9797211646683828
upperback -0.5141620953664926 0.28958055974514796 0.40459525981995537
thorax -10.016907540867088 0.24468822928526868 2.241592249707673
lowerneck -20.42322453932824 -2.9760373758144945 -2.115285827064576
upperneck 14.197924533802096 -3.6903758153994675 2.156218321925354
head 7.800303561576679 -1.7295136105061142 0.5332535285472622
lclavicle -2.1316478071712862e-15 1.4914320520778708e-15
lhumerus -46.90745614013382 -17.062802412263895 97.19980328494862
lradius 109.5439525567752
lwrist 33.69608459432896
lhand -24.303705864434868 3.577826177000617
lfingers 7.12502
lthumb 2.1840610604512545 33.535622567956864
rclavicle -2.1316478071712862e-15 1.4914320520778708e-15
rhumerus -52.816688245113035 7.7262192922159985 -96.85325701228028
rradius 108.34841082262147
rwrist -9.837524236611142
rhand -15.600514341705424 39.93466481693029
rfingers 7.12502
rthumb 10.585331640565332 10.252766775998795
24
root 0.22072931902057683 17.88678272071417 1.7604917989159183 3.426871710788233 2.6169635035267684 0.9354590060800518
lfemur 0.1672455343529453 -0.11854758987868214 -28.379179028821337
ltibia 40.27321613823925
lfoot -16.17262323645003 -4.504048990689242
ltoes -2.4857286212148804
rfemur -42.93392247998567 -2.3489898281062684 23.79811909531295
rtibia 71.70415654584826
rfoot 5.989707813585798 -13.472573594534708
rtoes -3.913756243000672
lowerback 16.43152764215994 0.1211528800618964 -2.549531851804505
upperback -0.557314104665713 -0.08137433330472787 0.48884333029641214
thorax -9.842771136706638 0.09729712597172957 2.9406175088942423
lowerneck -20.793007999520853 -3.1009916076140356 -2.1569336781889876
upperneck 13.917854192448095 -3.836721420238537 2.3491102366507195
head 7.759504614992511 -1.7843369721061129 0.6046092237674431
lclavicle -1.0751606527852168e-15 2.257730459990382e-15
lhumerus -41.544865801883034 -18.78857666804361 97.19704659369633
lradius 113.13524979813486
lwrist 34.77415584506967
lhand -24.299481143046055 4.525355720487507
lfingers 7.12502
lthumb 2.188094711314076 34.47919197412933
rclavicle -1.0751606527852168e-15 2.2577304599903822e-15
rhumerus -53.632179847093454 8.165185707149266 -96.92478970794303
rradius 108.2229818201726
rwrist -10.002233331019696
rhand -15.658126871550863 40.404785248770324
rfingers 7.12502
rthumb 10.529754150380363 10.64763664988946
